<?xml version="1.0" encoding="iso-8859-1"?>
<!-- Generator: Adobe Illustrator 19.0.0, SVG Export Plug-In . SVG Version: 6.00 Build 0)  -->
<svg version="1.1" id="Layer_1" xmlns="http://www.w3.org/2000/svg" xmlns:xlink="http://www.w3.org/1999/xlink" x="0px" y="0px"
	 viewBox="0 0 512.001 512.001" style="enable-background:new 0 0 512.001 512.001;" xml:space="preserve">
<path style="fill:#F2464F;" d="M414.352,175.803c-7.732-48.473-32.565-92.897-69.928-125.09
	c-37.765-32.539-86.04-50.46-135.934-50.46C93.528,0.253,0,93.875,0,208.952s93.528,208.699,208.49,208.699
	c22.583,0,44.812-3.602,66.07-10.708l2.396-0.801l1.419-2.093c16.459-24.263,42.34-42.546,71.009-50.16l0.182-0.048
	c1.058-0.279,2.12-0.542,3.178-0.791l0.618-0.139c0.891-0.205,1.786-0.4,2.677-0.584l0.922-0.185
	c0.33-0.066,0.662-0.126,0.994-0.186l2.906-0.537l1.693-1.857c1.359-1.491,2.719-3.031,4.158-4.708l7.502-8.746l-11.036-3.295
	c-22.311-6.662-37.893-27.527-37.893-50.741v-52.011c0-29.2,23.733-52.957,52.904-52.957c8.782,0,17.495,2.228,25.198,6.442
	l13.366,7.313L414.352,175.803z"/>
<g>
	<path style="fill:#D3333C;" d="M325.285,282.069v-52.008c0-24.334,16.487-44.873,38.862-51.048
		c-4.528-1.246-9.216-1.908-13.93-1.908c-29.171,0-52.904,23.757-52.904,52.957v52.008c0,23.214,15.582,44.079,37.893,50.741
		l11.036,3.295l-7.502,8.746c-1.439,1.677-2.798,3.217-4.158,4.708l-1.693,1.857l-2.906,0.537c-0.332,0.06-0.664,0.121-0.994,0.187
		l-0.922,0.185c-0.891,0.184-1.786,0.379-2.677,0.584l-0.618,0.139c-1.058,0.249-2.12,0.512-3.178,0.791l-0.182,0.048
		c-28.669,7.615-54.551,25.897-71.01,50.16l-1.419,2.093l-2.396,0.801c-16.834,5.627-34.278,9.048-52.023,10.232
		c4.604,0.305,9.245,0.477,13.925,0.477c22.583,0,44.812-3.602,66.07-10.708l2.396-0.801l1.419-2.093
		c16.459-24.263,42.34-42.546,71.009-50.16l0.182-0.048c1.058-0.279,2.12-0.542,3.178-0.791l0.618-0.139
		c0.891-0.205,1.786-0.4,2.677-0.584l0.922-0.185c0.33-0.066,0.662-0.126,0.994-0.187l2.906-0.537l1.693-1.857
		c1.359-1.491,2.719-3.031,4.158-4.708l7.502-8.746l-11.036-3.295C340.868,326.149,325.285,305.283,325.285,282.069z"/>
	<path style="fill:#D3333C;" d="M414.352,175.803c-7.732-48.473-32.565-92.897-69.927-125.09
		c-37.765-32.539-86.04-50.46-135.934-50.46c-4.676,0-9.313,0.171-13.913,0.476c44.842,3.033,87.67,20.512,121.875,49.984
		c37.362,32.193,62.196,76.617,69.927,125.09l0.323,2.025c5.827,0.961,11.488,2.876,16.685,5.719l13.366,7.313L414.352,175.803z"/>
</g>
<path style="fill:#EFE7E4;" d="M370.946,169.659c-8.63-35.874-29.338-68.377-58.309-91.522
	c-29.856-23.851-65.869-36.458-104.146-36.458c-92.142,0-167.106,75.038-167.106,167.273c0,92.234,74.964,167.273,167.106,167.273
	c47.628,0,93.128-20.442,124.833-56.086l3.819-4.293l-3.161-4.799c-5.689-8.636-8.695-18.656-8.695-28.977v-52.009
	c0-24.356,16.531-45.49,40.202-51.391l7.195-1.794L370.946,169.659z"/>
<path style="fill:#D8D1D0;" d="M370.946,169.659c-8.63-35.874-29.338-68.377-58.309-91.522
	c-29.856-23.851-65.869-36.458-104.146-36.458c-4.487,0-8.933,0.183-13.332,0.533c33.231,2.612,64.345,14.895,90.671,35.926
	c28.971,23.145,49.679,55.648,58.309,91.522l1.736,7.216l-7.195,1.794c-23.671,5.902-40.202,27.035-40.202,51.392v52.008
	c0,10.32,3.007,20.34,8.695,28.977l3.161,4.799l-3.819,4.293c-28.719,32.287-68.757,52.1-111.443,55.546
	c4.427,0.354,8.901,0.54,13.418,0.54c47.628,0,93.128-20.442,124.833-56.086l3.819-4.293l-3.161-4.799
	c-5.689-8.636-8.695-18.656-8.695-28.977v-52.009c0-24.356,16.531-45.49,40.202-51.392l7.195-1.794L370.946,169.659z"/>
<g>
	<path style="fill:#546F7A;" d="M208.391,192.459c-4.127,0-7.473-3.349-7.473-7.481V94.485c0-4.131,3.346-7.481,7.473-7.481
		c4.127,0,7.473,3.349,7.473,7.481v90.493C215.865,189.11,212.518,192.459,208.391,192.459z"/>
	<path style="fill:#546F7A;" d="M149.49,283.047c-1.807,0-3.618-0.652-5.054-1.972c-3.04-2.795-3.24-7.527-0.448-10.569
		l44.072-48.022c2.792-3.043,7.519-3.244,10.559-0.448c3.04,2.795,3.24,7.527,0.448,10.569l-44.072,48.022
		C153.522,282.233,151.508,283.047,149.49,283.047z"/>
</g>
<path style="fill:#F7CB4F;" d="M208.391,177.498c-17.272,0-31.323,14.066-31.323,31.354c0,17.289,14.052,31.355,31.323,31.355
	c17.272,0,31.324-14.066,31.324-31.355C239.715,191.563,225.663,177.498,208.391,177.498z"/>
<path style="fill:#F4B008;" d="M208.391,177.498c-4.892,0-9.524,1.13-13.653,3.14c10.45,5.087,17.671,15.822,17.671,28.214
	c0,12.393-7.221,23.127-17.671,28.215c4.129,2.01,8.761,3.14,13.653,3.14c17.272,0,31.324-14.066,31.324-31.355
	C239.715,191.563,225.663,177.498,208.391,177.498z"/>
<path style="fill:#68B9D8;" d="M378.292,334.923c-0.068-0.001-0.136-0.001-0.204,0c-72.477,0.992-133.708,60.415-133.708,129.758
	v39.587c0,4.131,3.346,7.481,7.473,7.481h252.675c4.127,0,7.473-3.349,7.473-7.481v-39.587
	C512,395.338,450.769,335.916,378.292,334.923z"/>
<path style="fill:#3695B2;" d="M378.292,334.923c-0.068-0.001-0.136-0.001-0.204,0c-4.594,0.063-9.143,0.363-13.634,0.883
	c66.359,7.685,120.074,63.927,120.074,128.875v39.587c0,4.131-3.346,7.481-7.473,7.481h27.473c4.127,0,7.473-3.349,7.473-7.481
	v-39.587C512,395.338,450.769,335.916,378.292,334.923z"/>
<path style="fill:#F2464F;" d="M417.649,450.046l-17.19-74.695c-0.799-3.471-3.886-5.93-7.445-5.93h-29.65
	c-3.559,0-6.646,2.459-7.444,5.93l-17.19,74.695c-0.618,2.686,0.256,5.497,2.287,7.358l32.015,29.331
	c1.46,1.337,3.309,2.006,5.158,2.006s3.698-0.669,5.158-2.006l32.015-29.331C417.393,455.543,418.267,452.732,417.649,450.046z"/>
<g>
	<path style="fill:#D3333C;" d="M370.743,369.42l18.836,81.849l-27.629,25.313l11.082,10.153c1.46,1.337,3.309,2.006,5.158,2.006
		s3.698-0.669,5.158-2.006l32.015-29.331c2.031-1.861,2.905-4.672,2.287-7.358l-17.19-74.695c-0.799-3.471-3.886-5.93-7.445-5.93
		h-22.272V369.42z"/>
	<path style="fill:#D3333C;" d="M373.419,335.078c-1.087,0.054-2.175,0.117-3.262,0.197c-0.17,0.012-0.34,0.026-0.51,0.039
		c-8.088,0.632-16.161,2.006-24.094,4.113c-0.08,0.021-0.174,0.024-0.276,0.018c-3.012,0.8-5.985,1.704-8.917,2.701
		c1.98,3.631,3.995,7.024,4.465,7.936l14.458,28.117h45.815l14.458-28.117c0.47-0.914,2.287-4.374,4.047-8.074
		c-2.799-0.941-5.633-1.801-8.505-2.563c-0.099,0.007-0.191,0.005-0.271-0.016c-7.933-2.107-16.005-3.481-24.094-4.113
		c-0.17-0.013-0.34-0.027-0.511-0.039c-1.087-0.081-2.174-0.144-3.262-0.197c-0.273-0.013-0.544-0.031-0.817-0.042
		c-1.284-0.055-2.568-0.095-3.852-0.113c-0.068-0.001-0.136-0.001-0.204,0c-1.283,0.018-2.567,0.058-3.852,0.113
		C373.963,335.048,373.691,335.065,373.419,335.078z"/>
</g>
<path style="fill:#AF273B;" d="M419.602,342.008c-2.799-0.941-5.633-1.801-8.505-2.563c-0.099,0.007-0.191,0.005-0.271-0.016
	c-6.196-1.646-12.479-2.838-18.787-3.585L372.762,378.2h5.426h22.907l14.458-28.117
	C416.025,349.168,417.842,345.708,419.602,342.008z"/>
<path style="fill:#FFC89F;" d="M378.189,162.143c-37.413,0-67.85,30.468-67.85,67.918v52.008c0,37.45,30.438,67.918,67.85,67.918
	c37.413,0,67.851-30.468,67.851-67.918v-52.008C446.04,192.611,415.603,162.143,378.189,162.143z"/>
<path style="fill:#F7B081;" d="M378.189,162.143c-4.702,0-9.293,0.483-13.729,1.399c30.854,6.372,54.122,33.776,54.122,66.519
	v52.008c0,32.743-23.268,60.147-54.122,66.519c4.435,0.916,9.027,1.399,13.729,1.399c37.413,0,67.851-30.468,67.851-67.918v-52.008
	C446.04,192.611,415.603,162.143,378.189,162.143z"/>
<path d="M446.04,256.059v-25.998c0-37.45-30.438-67.918-67.851-67.918s-67.85,30.468-67.85,67.918v25.948l7.473,0.056
	c52.773,0,71.998-35.669,71.998-35.669s13.438,35.497,48.757,35.662L446.04,256.059z"/>
<g>
</g>
<g>
</g>
<g>
</g>
<g>
</g>
<g>
</g>
<g>
</g>
<g>
</g>
<g>
</g>
<g>
</g>
<g>
</g>
<g>
</g>
<g>
</g>
<g>
</g>
<g>
</g>
<g>
</g>
</svg>
