<?xml version="1.0" encoding="UTF-8" standalone="no"?>
<svg
   xmlns:dc="http://purl.org/dc/elements/1.1/"
   xmlns:cc="http://creativecommons.org/ns#"
   xmlns:rdf="http://www.w3.org/1999/02/22-rdf-syntax-ns#"
   xmlns:svg="http://www.w3.org/2000/svg"
   xmlns="http://www.w3.org/2000/svg"
   viewBox="0 0 1350 1350"
   height="1350"
   width="1350"
   xml:space="preserve"
   version="1.1"
   id="svg2"><metadata
     id="metadata8"><rdf:RDF><cc:Work
         rdf:about=""><dc:format>image/svg+xml</dc:format><dc:type
           rdf:resource="http://purl.org/dc/dcmitype/StillImage" /></cc:Work></rdf:RDF></metadata><defs
     id="defs6" /><g
     transform="matrix(1.25,0,0,-1.25,0,1350)"
     id="g10"><g
       transform="scale(0.1,0.1)"
       id="g12"><path
         id="path14"
         style="fill:#000080;fill-opacity:1;fill-rule:nonzero;stroke:none"
         d="m 9190.39,5120 c 0,1999.48 -1620.91,3620.39 -3620.39,3620.39 -1999.48,0 -3620.39,-1620.91 -3620.39,-3620.39 0,-1999.48 1620.91,-3620.39 3620.39,-3620.39 1999.48,0 3620.39,1620.91 3620.39,3620.39" /><path
         id="path16"
         style="fill:#ffffff;fill-opacity:1;fill-rule:nonzero;stroke:none"
         d="M 8130,6619.61 C 8130,7205.25 7655.25,7680 7069.61,7680 c -585.63,0 -1060.38,-474.75 -1060.38,-1060.39 0,-585.63 474.75,-1060.38 1060.38,-1060.38 585.64,0 1060.39,474.75 1060.39,1060.38" /><path
         id="path18"
         style="fill:#000080;fill-opacity:1;fill-rule:nonzero;stroke:none"
         d="m 10250.8,8740.39 c 0,585.63 -474.78,1060.38 -1060.41,1060.38 C 8604.75,9800.77 8130,9326.02 8130,8740.39 8130,8154.75 8604.75,7680 9190.39,7680 c 585.63,0 1060.41,474.75 1060.41,1060.39" /><g
         transform="scale(10,10)"
         id="g20"><text
           id="text22"
           style="font-variant:normal;font-weight:normal;font-size:325.83499146px;font-family:Helvetica;-inkscape-font-specification:Helvetica;writing-mode:lr-tb;fill:#ffffff;fill-opacity:1;fill-rule:nonzero;stroke:none"
           transform="matrix(1,0,0,-1,285.254,330.981)"><tspan
             id="tspan24"
             y="0"
             x="0 181.16426 362.32852">Lua</tspan></text>
</g><g
         transform="scale(10,10)"
         id="g26"><text
           id="text28"
           style="font-variant:normal;font-weight:normal;font-size:130.33395386px;font-family:Helvetica;-inkscape-font-specification:Helvetica;writing-mode:lr-tb;fill:#808080;fill-opacity:1;fill-rule:nonzero;stroke:none"
           transform="matrix(0.309276,0.950972,0.950972,-0.309276,133.904,611.499)"><tspan
             id="tspan30"
             y="0"
             x="0">p</tspan></text>
<text
           id="text32"
           style="font-variant:normal;font-weight:normal;font-size:130.33398438px;font-family:Helvetica;-inkscape-font-specification:Helvetica;writing-mode:lr-tb;fill:#808080;fill-opacity:1;fill-rule:nonzero;stroke:none"
           transform="matrix(0.452916,0.891553,0.891553,-0.452916,154.436,675.866)"><tspan
             id="tspan34"
             y="0"
             x="0">o</tspan></text>
<text
           id="text36"
           style="font-variant:normal;font-weight:normal;font-size:130.33404541px;font-family:Helvetica;-inkscape-font-specification:Helvetica;writing-mode:lr-tb;fill:#808080;fill-opacity:1;fill-rule:nonzero;stroke:none"
           transform="matrix(0.604282,0.796771,0.796771,-0.604282,183.467,736.241)"><tspan
             id="tspan38"
             y="0"
             x="0">w</tspan></text>
<text
           id="text40"
           style="font-variant:normal;font-weight:normal;font-size:130.33403015px;font-family:Helvetica;-inkscape-font-specification:Helvetica;writing-mode:lr-tb;fill:#808080;fill-opacity:1;fill-rule:nonzero;stroke:none"
           transform="matrix(0.736374,0.676575,0.676575,-0.736374,237.277,806.428)"><tspan
             id="tspan42"
             y="0"
             x="0">e</tspan></text>
<text
           id="text44"
           style="font-variant:normal;font-weight:normal;font-size:130.33403015px;font-family:Helvetica;-inkscape-font-specification:Helvetica;writing-mode:lr-tb;fill:#808080;fill-opacity:1;fill-rule:nonzero;stroke:none"
           transform="matrix(0.814631,0.57998,0.57998,-0.814631,288.118,852.252)"><tspan
             id="tspan46"
             y="0"
             x="0">r</tspan></text>
<text
           id="text48"
           style="font-variant:normal;font-weight:normal;font-size:130.33398438px;font-family:Helvetica;-inkscape-font-specification:Helvetica;writing-mode:lr-tb;fill:#808080;fill-opacity:1;fill-rule:nonzero;stroke:none"
           transform="matrix(0.880298,0.474421,0.474421,-0.880298,319.621,876.09)"><tspan
             id="tspan50"
             y="0"
             x="0">e</tspan></text>
<text
           id="text52"
           style="font-variant:normal;font-weight:normal;font-size:130.33395386px;font-family:Helvetica;-inkscape-font-specification:Helvetica;writing-mode:lr-tb;fill:#808080;fill-opacity:1;fill-rule:nonzero;stroke:none"
           transform="matrix(0.943186,0.332264,0.332264,-0.943186,378.914,908.479)"><tspan
             id="tspan54"
             y="0"
             x="0">d</tspan></text>
<text
           id="text56"
           style="font-variant:normal;font-weight:normal;font-size:130.33399963px;font-family:Helvetica;-inkscape-font-specification:Helvetica;writing-mode:lr-tb;fill:#808080;fill-opacity:1;fill-rule:nonzero;stroke:none"
           transform="matrix(0.994461,0.105106,0.105106,-0.994461,475.444,938.918)"><tspan
             id="tspan58"
             y="0"
             x="0">b</tspan></text>
<text
           id="text60"
           style="font-variant:normal;font-weight:normal;font-size:130.3339386px;font-family:Helvetica;-inkscape-font-specification:Helvetica;writing-mode:lr-tb;fill:#808080;fill-opacity:1;fill-rule:nonzero;stroke:none"
           transform="matrix(0.999098,-0.0424537,-0.0424537,-0.999098,542.834,946.118)"><tspan
             id="tspan62"
             y="0"
             x="0">y</tspan></text>
</g><path
         id="path64"
         style="fill:none;stroke:#808080;stroke-width:108.61199951;stroke-linecap:butt;stroke-linejoin:miter;stroke-miterlimit:10;stroke-dasharray:408.475;stroke-dashoffset:0;stroke-opacity:1"
         d="M 9623.67,7460.39 C 10034.5,6748.82 10250.8,5941.64 10250.8,5120 10250.8,2534.88 8155.12,439.227 5570,439.227 2984.88,439.227 889.227,2534.88 889.227,5120 c 0,272.49 23.796,544.46 71.113,812.81" /><path
         id="path66"
         style="fill:none;stroke:#808080;stroke-width:108.61199951;stroke-linecap:butt;stroke-linejoin:miter;stroke-miterlimit:10;stroke-dasharray:408.475;stroke-dashoffset:0;stroke-opacity:1"
         d="m 7910.39,9173.67 c -472.87,273.01 -989.86,461.18 -1527.58,555.99" /></g></g></svg>